<mxfile host="app.diagrams.net" modified="2020-12-02T06:27:43.425Z" agent="5.0 (Windows NT 10.0; Win64; x64) AppleWebKit/537.36 (KHTML, like Gecko) Chrome/86.0.4240.198 Safari/537.36" etag="ukme_rsYepxvzHfAjRR_" version="13.10.0" type="github">
  <diagram id="PSW1wa30DSysuFZ3tLMr" name="Page-1">
    <mxGraphModel dx="782" dy="469" grid="1" gridSize="10" guides="1" tooltips="1" connect="1" arrows="1" fold="1" page="1" pageScale="1" pageWidth="850" pageHeight="1100" math="0" shadow="0">
      <root>
        <mxCell id="0" />
        <mxCell id="1" parent="0" />
        <mxCell id="rB0IKLFaRMRqHCRwFB8Y-4" value="" style="edgeStyle=orthogonalEdgeStyle;rounded=0;orthogonalLoop=1;jettySize=auto;html=1;" edge="1" parent="1" source="rB0IKLFaRMRqHCRwFB8Y-1" target="rB0IKLFaRMRqHCRwFB8Y-3">
          <mxGeometry relative="1" as="geometry" />
        </mxCell>
        <mxCell id="rB0IKLFaRMRqHCRwFB8Y-1" value="" style="shape=cylinder3;whiteSpace=wrap;html=1;boundedLbl=1;backgroundOutline=1;size=15;" vertex="1" parent="1">
          <mxGeometry x="200" y="50" width="60" height="80" as="geometry" />
        </mxCell>
        <mxCell id="rB0IKLFaRMRqHCRwFB8Y-3" value="" style="shape=cylinder3;whiteSpace=wrap;html=1;boundedLbl=1;backgroundOutline=1;size=15;" vertex="1" parent="1">
          <mxGeometry x="340" y="50" width="60" height="80" as="geometry" />
        </mxCell>
        <mxCell id="rB0IKLFaRMRqHCRwFB8Y-5" value="Point A" style="text;html=1;align=center;verticalAlign=middle;resizable=0;points=[];autosize=1;" vertex="1" parent="1">
          <mxGeometry x="185" y="130" width="50" height="20" as="geometry" />
        </mxCell>
        <mxCell id="rB0IKLFaRMRqHCRwFB8Y-6" value="Point B" style="text;html=1;align=center;verticalAlign=middle;resizable=0;points=[];autosize=1;" vertex="1" parent="1">
          <mxGeometry x="355" y="130" width="50" height="20" as="geometry" />
        </mxCell>
        <mxCell id="rB0IKLFaRMRqHCRwFB8Y-9" value="" style="edgeStyle=orthogonalEdgeStyle;rounded=0;orthogonalLoop=1;jettySize=auto;html=1;" edge="1" parent="1" source="rB0IKLFaRMRqHCRwFB8Y-7" target="rB0IKLFaRMRqHCRwFB8Y-8">
          <mxGeometry relative="1" as="geometry" />
        </mxCell>
        <mxCell id="rB0IKLFaRMRqHCRwFB8Y-7" value="&lt;br&gt;Step 1:&lt;br&gt;Team Details" style="rounded=0;whiteSpace=wrap;html=1;" vertex="1" parent="1">
          <mxGeometry x="20" y="190" width="120" height="60" as="geometry" />
        </mxCell>
        <mxCell id="rB0IKLFaRMRqHCRwFB8Y-11" value="" style="edgeStyle=orthogonalEdgeStyle;rounded=0;orthogonalLoop=1;jettySize=auto;html=1;" edge="1" parent="1" source="rB0IKLFaRMRqHCRwFB8Y-8" target="rB0IKLFaRMRqHCRwFB8Y-10">
          <mxGeometry relative="1" as="geometry" />
        </mxCell>
        <mxCell id="rB0IKLFaRMRqHCRwFB8Y-8" value="&lt;br&gt;Step 2:&lt;br&gt;Point A" style="rounded=0;whiteSpace=wrap;html=1;" vertex="1" parent="1">
          <mxGeometry x="220" y="190" width="120" height="60" as="geometry" />
        </mxCell>
        <mxCell id="rB0IKLFaRMRqHCRwFB8Y-14" value="" style="edgeStyle=orthogonalEdgeStyle;rounded=0;orthogonalLoop=1;jettySize=auto;html=1;" edge="1" parent="1" source="rB0IKLFaRMRqHCRwFB8Y-10" target="rB0IKLFaRMRqHCRwFB8Y-13">
          <mxGeometry relative="1" as="geometry" />
        </mxCell>
        <mxCell id="rB0IKLFaRMRqHCRwFB8Y-10" value="&lt;br&gt;Step 3:&lt;br&gt;Point B" style="rounded=0;whiteSpace=wrap;html=1;" vertex="1" parent="1">
          <mxGeometry x="420" y="190" width="120" height="60" as="geometry" />
        </mxCell>
        <mxCell id="rB0IKLFaRMRqHCRwFB8Y-16" value="" style="edgeStyle=orthogonalEdgeStyle;rounded=0;orthogonalLoop=1;jettySize=auto;html=1;" edge="1" parent="1" source="rB0IKLFaRMRqHCRwFB8Y-13" target="rB0IKLFaRMRqHCRwFB8Y-15">
          <mxGeometry relative="1" as="geometry" />
        </mxCell>
        <mxCell id="rB0IKLFaRMRqHCRwFB8Y-13" value="&lt;br&gt;Step 4:&lt;br&gt;Review All Details" style="rounded=0;whiteSpace=wrap;html=1;" vertex="1" parent="1">
          <mxGeometry x="620" y="190" width="120" height="60" as="geometry" />
        </mxCell>
        <mxCell id="rB0IKLFaRMRqHCRwFB8Y-18" value="" style="edgeStyle=orthogonalEdgeStyle;rounded=0;orthogonalLoop=1;jettySize=auto;html=1;exitX=0.5;exitY=1;exitDx=0;exitDy=0;" edge="1" parent="1" source="rB0IKLFaRMRqHCRwFB8Y-13" target="rB0IKLFaRMRqHCRwFB8Y-17">
          <mxGeometry relative="1" as="geometry" />
        </mxCell>
        <mxCell id="rB0IKLFaRMRqHCRwFB8Y-15" value="&lt;br&gt;Step 5: Governance Approval" style="rounded=0;whiteSpace=wrap;html=1;" vertex="1" parent="1">
          <mxGeometry x="620" y="330" width="120" height="60" as="geometry" />
        </mxCell>
        <mxCell id="rB0IKLFaRMRqHCRwFB8Y-17" value="&lt;br&gt;Step 6: Connectivity Checks for Point A and Point B&amp;nbsp;" style="rounded=0;whiteSpace=wrap;html=1;" vertex="1" parent="1">
          <mxGeometry x="470" y="330" width="120" height="60" as="geometry" />
        </mxCell>
        <mxCell id="rB0IKLFaRMRqHCRwFB8Y-22" value="" style="rounded=0;whiteSpace=wrap;html=1;" vertex="1" parent="1">
          <mxGeometry x="20" y="270" width="120" height="190" as="geometry" />
        </mxCell>
      </root>
    </mxGraphModel>
  </diagram>
</mxfile>
